<svg xmlns="http://www.w3.org/2000/svg" xmlns:xlink="http://www.w3.org/1999/xlink" fill="none" version="1.1" width="585.1000366210938" height="534" viewBox="0 0 585.1000366210938 534"><g><g style="mix-blend-mode:passthrough"><rect x="86.99998474121094" y="0" width="410" height="410" rx="30" fill="#2B9939" fill-opacity="1"/></g><g><path d="M50.7,470.0000610352C54.7,470.0000610352,58,471.40009,60.8,474.20007C63.6,477.00006,65,480.4001,65,484.3L65,533.9L14.3,533.9C10.3,533.9,7.00005,532.5,4.20004,529.7C1.40004,526.9,0.0000457764,523.5,0.0000457764,519.6L0.0000457764,496.0001L53.1,496.0001L53.1,484.3C53.1,483.6,52.9,483.1,52.4,482.6C51.9,482.1,51.4,481.9,50.7,481.9L0,481.9L0,470L50.7,470.0000610352ZM53.1,522.0001L53.1,507.9001L11.9,507.9001L11.9,519.6001C11.9,520.3001,12.1,520.8001,12.6,521.3001C13.1,521.8001,13.6,522.0001,14.3,522.0001L53.1,522.0001ZM167.8,470.0000610352L180.5,470.0000610352L156.5,533.9001L146.8,533.9001L125.3,486.4001L105,533.9001L104.8,533.8001L104.9,533.9001L95.3,533.9001L70.2,470.0000610352L82.8,470.0000610352L100.1,512.4001L118.5,470.0000610352L132.1,470.0000610352L151.6,512.4001L167.8,470.0000610352ZM235,470.0000610352C239,470.0000610352,242.3,471.40009,245.1,474.20007C247.9,477.00006,249.3,480.4001,249.3,484.3L249.3,507.9L196.2,507.9L196.2,519.6C196.2,520.3,196.4,520.8,196.9,521.3C197.4,521.8,197.9,522.0001,198.6,522.0001L249.3,522.0001L249.3,533.9001L198.6,533.9001C194.6,533.9001,191.3,532.5001,188.5,529.7001C185.7,526.9001,184.3,523.5001,184.3,519.6001L184.3,484.3001C184.3,480.3001,185.7,477.00012,188.5,474.20013C191.3,471.40015,194.7,470.00012207,198.6,470.00012207L235,470.0000610352ZM196.2,496.0001L237.4,496.0001L237.4,484.3C237.4,483.6,237.2,483.1,236.7,482.6C236.2,482.1,235.7,481.9,235,481.9L198.6,481.9C197.9,481.9,197.4,482.1,196.9,482.6C196.4,483.1,196.2,483.6,196.2,484.3L196.2,496.0001ZM325.2,484.4L325.2,486.8L313.3,486.8L313.3,484.4C313.3,483.7,313.1,483.2,312.6,482.7C312.1,482.2,311.6,482,310.9,482L274.5,482C273.8,482,273.3,482.2,272.8,482.7C272.3,483.2,272.1,483.7,272.1,484.4L272.1,493.7C272.1,494.4,272.3,494.9,272.8,495.4C273.3,495.9,273.8,496.1,274.5,496.1L310.9,496.1C314.9,496.1,318.2,497.5001,321,500.3C323.8,503.1,325.2,506.5001,325.2,510.4L325.2,519.7C325.2,523.7,323.8,527,321,529.8C318.2,532.6,314.8,534,310.9,534L274.5,534C270.5,534,267.2,532.6,264.4,529.8C261.6,527,260.2,523.6,260.2,519.7L260.2,517.3L272.1,517.3L272.1,519.7C272.1,520.4,272.3,520.9,272.8,521.4C273.3,521.9,273.8,522.1,274.5,522.1L310.9,522.1C311.6,522.1,312.1,521.9,312.6,521.4C313.1,520.9,313.3,520.4,313.3,519.7L313.3,510.4C313.3,509.7,313.1,509.2,312.6,508.7C312.1,508.2,311.6,508,310.9,508L274.5,508C270.5,508,267.2,506.6,264.4,503.8C261.6,501,260.2,497.6,260.2,493.7L260.2,484.4C260.2,480.4,261.6,477.10004,264.4,474.30005C267.2,471.50006,270.6,470.100037,274.5,470.100037L310.9,470.100037C314.9,470.100037,318.2,471.50006,321,474.30005C323.8,477.00006,325.2,480.4,325.2,484.4ZM350.4,470.0000610352L386.8,470.0000610352C390.8,470.0000610352,394.1,471.40009,396.9,474.20007C399.7,477.00006,401.1,480.4001,401.1,484.3L401.1,519.6C401.1,523.6,399.7,526.9,396.9,529.7C394.1,532.5,390.7,533.9,386.8,533.9L350.4,533.9C346.4,533.9,343.1,532.5,340.3,529.7C337.5,526.9,336.1,523.5,336.1,519.6L336.1,484.3C336.1,480.3,337.5,477.00006,340.3,474.20007C343.1,471.40002,346.5,470.0000610352,350.4,470.0000610352ZM386.8,481.9L350.4,481.9C349.7,481.9,349.2,482.1,348.7,482.6C348.2,483.1,348,483.6,348,484.3L348,519.6C348,520.3,348.2,520.8,348.7,521.3C349.2,521.8,349.7,522.0001,350.4,522.0001L386.8,522.0001C387.5,522.0001,388,521.8,388.5,521.3C389,520.8,389.2,520.3,389.2,519.6L389.2,484.3C389.2,483.6,389,483.1,388.5,482.6C388,482.2001,387.5,481.9,386.8,481.9ZM494.3,470.0000610352C498.3,470.0000610352,501.6,471.40009,504.4,474.20007C507.2,477.00006,508.6,480.4001,508.6,484.3L508.6,533.9L496.8,533.9L496.8,484.3C496.8,483.6,496.6,483.1,496.1,482.6C495.6,482.1,495,481.9,494.3,481.9L469.1,481.9C468.4,481.9,467.9,482.1,467.4,482.6C466.9,483.1,466.7,483.6,466.7,484.3L466.7,533.9L454.8,533.9L454.8,484.3C454.8,483.6,454.6,483.1,454.1,482.6C453.6,482.1,453.1,481.9,452.4,481.9L427.1,481.9C426.4,481.9,425.9,482.1,425.4,482.6C424.9,483.1,424.7,483.6,424.7,484.3L424.7,533.9L412.8,533.9L412.8,470L494.3,470.0000610352ZM570.8,470.0000610352C574.8,470.0000610352,578.1,471.40009,580.9,474.20007C583.7,477.00006,585.1,480.4001,585.1,484.3L585.1,507.9L532,507.9L532,519.6C532,520.3,532.2,520.8,532.7,521.3C533.2,521.8,533.7,522.0001,534.4,522.0001L585.1,522.0001L585.1,533.9001L534.4,533.9001C530.4,533.9001,527.1,532.5001,524.3,529.7001C521.5,526.9001,520.1,523.5001,520.1,519.6001L520.1,484.3001C520.1,480.3001,521.5,477.00012,524.3,474.20013C527.1,471.40015,530.5,470.00012207,534.4,470.00012207L570.8,470.0000610352ZM532,496.0001L573.2,496.0001L573.2,484.3C573.2,483.6,573,483.1,572.5,482.6C572,482.1,571.5,481.9,570.8,481.9L534.4,481.9C533.7,481.9,533.2,482.1,532.7,482.6C532.2,483.1,532,483.6,532,484.3L532,496.0001Z" fill="#494368" fill-opacity="1"/></g><g><path d="M437,181.50889999999998L362.37953,145L358,159.5776L420.1773,190L436.9923,181.5188L437,181.50889999999998Z" fill="#FC60A8" fill-opacity="1"/></g><g><path d="M142.99998474121094,181.50889999999998L223.27958474121095,145L227.99998474121094,159.5776L161.10028474121094,190L143.00821645121093,181.5188L142.99998474121094,181.50889999999998Z" fill="#FC60A8" fill-opacity="1"/></g><g style="mix-blend-mode:passthrough"><path d="M187.99998474121094,312L396.99998474121094,312L396.99998474121094,98L358.3609847412109,98L358.3609847412109,273.251L227.51678474121093,273.251L227.51678474121093,98L187.99998474121094,98L187.99998474121094,312Z" fill="#FFFFFF" fill-opacity="1"/></g><g><path d="M436.78998474121096,181.6099853515625L142.99998474121094,181.6099853515625L142.99998474121094,227.1699853515625C142.99998474121094,247.7699853515625,162.81998474121093,264.5299853515625,187.19998474121093,264.5299853515625L233.65998474121093,264.5299853515625C258.0199847412109,264.5299853515625,277.84998474121096,247.7699853515625,277.84998474121096,227.1699853515625L277.84998474121096,197.2299853515625L301.97998474121096,197.2299853515625L301.97998474121096,227.1399853515625C301.97998474121096,247.7399853515625,321.79998474121095,264.4999853515625,346.1699847412109,264.4999853515625L392.6599847412109,264.4999853515625C417.0299847412109,264.4999853515625,436.85998474121095,247.7399853515625,436.85998474121095,227.1399853515625L436.85998474121095,181.6099853515625L436.78998474121096,181.6099853515625Z" fill="#FC60A8" fill-opacity="1"/></g></g></svg>